<mxfile host="65bd71144e">
    <diagram id="8coTeD8jSOSr6VL4Ssl9" name="Page-1">
        <mxGraphModel dx="746" dy="563" grid="0" gridSize="10" guides="1" tooltips="1" connect="1" arrows="1" fold="1" page="0" pageScale="1" pageWidth="1654" pageHeight="1169" math="0" shadow="0">
            <root>
                <mxCell id="0"/>
                <mxCell id="1" parent="0"/>
                <mxCell id="2" value="Authentication &amp; Roles" style="swimlane;" parent="1" vertex="1">
                    <mxGeometry x="320" y="120" width="560" height="690" as="geometry"/>
                </mxCell>
                <mxCell id="3" value="&lt;br&gt;&lt;table border=&quot;0&quot; cellpadding=&quot;0&quot; cellspacing=&quot;0&quot; dir=&quot;RTL&quot; width=&quot;229&quot; style=&quot;border-collapse: collapse ; width: 172pt ; font-size: 29px&quot;&gt;&lt;colgroup&gt;&lt;col width=&quot;229&quot; style=&quot;width: 172pt&quot;&gt;&lt;/colgroup&gt;&lt;tbody&gt;&lt;tr style=&quot;height: 13.2pt&quot;&gt;&lt;td height=&quot;18&quot; class=&quot;xl65&quot; dir=&quot;LTR&quot; align=&quot;left&quot; style=&quot;height: 13.2pt&quot;&gt;&lt;font style=&quot;font-size: 29px&quot; color=&quot;#ffffff&quot;&gt;AssignRole&lt;/font&gt;&lt;/td&gt; &lt;/tr&gt; &lt;tr style=&quot;height: 13.2pt&quot;&gt;  &lt;td height=&quot;18&quot; class=&quot;xl65&quot; dir=&quot;LTR&quot; align=&quot;left&quot; style=&quot;height: 13.2pt&quot;&gt;&lt;font style=&quot;font-size: 29px&quot; color=&quot;#ffffff&quot;&gt;IsInRole&lt;/font&gt;&lt;/td&gt; &lt;/tr&gt; &lt;tr style=&quot;height: 13.2pt&quot;&gt;  &lt;td height=&quot;18&quot; class=&quot;xl65&quot; dir=&quot;LTR&quot; align=&quot;left&quot; style=&quot;height: 13.2pt&quot;&gt;&lt;font style=&quot;font-size: 29px&quot; color=&quot;#ffffff&quot;&gt;RegisterExtraUserData&lt;/font&gt;&lt;/td&gt; &lt;/tr&gt; &lt;tr style=&quot;height: 13.2pt&quot;&gt;  &lt;td height=&quot;18&quot; class=&quot;xl65&quot; dir=&quot;LTR&quot; align=&quot;left&quot; style=&quot;height: 13.2pt&quot;&gt;&lt;font style=&quot;font-size: 29px&quot; color=&quot;#ffffff&quot;&gt;AssignContract&lt;/font&gt;&lt;/td&gt; &lt;/tr&gt; &lt;tr style=&quot;height: 13.2pt&quot;&gt;  &lt;td height=&quot;18&quot; class=&quot;xl65&quot; dir=&quot;LTR&quot; align=&quot;left&quot; style=&quot;height: 13.2pt&quot;&gt;&lt;/td&gt;&lt;/tr&gt; &lt;tr style=&quot;height: 13.2pt&quot;&gt;  &lt;td height=&quot;18&quot; class=&quot;xl65&quot; dir=&quot;LTR&quot; align=&quot;left&quot; style=&quot;height: 13.2pt&quot;&gt;&lt;font style=&quot;font-size: 29px&quot; color=&quot;#ffffff&quot;&gt;SaveUserSetting&lt;/font&gt;&lt;/td&gt; &lt;/tr&gt; &lt;tr style=&quot;height: 13.2pt&quot;&gt;  &lt;td height=&quot;18&quot; class=&quot;xl65&quot; dir=&quot;LTR&quot; align=&quot;left&quot; style=&quot;height: 13.2pt&quot;&gt;&lt;font style=&quot;font-size: 29px&quot; color=&quot;#ffffff&quot;&gt;AssignAccessRole&lt;/font&gt;&lt;/td&gt; &lt;/tr&gt; &lt;tr style=&quot;height: 13.2pt&quot;&gt;  &lt;td height=&quot;18&quot; class=&quot;xl65&quot; dir=&quot;LTR&quot; align=&quot;left&quot; style=&quot;height: 13.2pt&quot;&gt;&lt;font style=&quot;font-size: 29px&quot; color=&quot;#ffffff&quot;&gt;DefineRole&lt;/font&gt;&lt;/td&gt; &lt;/tr&gt; &lt;tr style=&quot;height: 13.2pt&quot;&gt;  &lt;td height=&quot;18&quot; class=&quot;xl65&quot; dir=&quot;LTR&quot; align=&quot;left&quot; style=&quot;height: 13.2pt&quot;&gt;&lt;br&gt;&lt;/td&gt; &lt;/tr&gt; &lt;tr style=&quot;height: 13.2pt&quot;&gt;  &lt;td height=&quot;18&quot; class=&quot;xl65&quot; dir=&quot;LTR&quot; align=&quot;left&quot; style=&quot;height: 13.2pt&quot;&gt;&lt;font style=&quot;font-size: 29px&quot; color=&quot;#ffffff&quot;&gt;getUserSetting&lt;/font&gt;&lt;/td&gt; &lt;/tr&gt;&lt;/tbody&gt;&lt;/table&gt;" style="text;html=1;align=center;verticalAlign=middle;resizable=0;points=[];autosize=1;strokeColor=none;fillColor=none;perimeterSpacing=1;" parent="2" vertex="1">
                    <mxGeometry x="17" y="77" width="316" height="357" as="geometry"/>
                </mxCell>
            </root>
        </mxGraphModel>
    </diagram>
</mxfile>